<svg width="20" height="20" viewBox="0 0 20 20" fill="none" xmlns="http://www.w3.org/2000/svg">
<g clip-path="url(#clip0_139_2326)">
<mask id="mask0_139_2326" style="mask-type:luminance" maskUnits="userSpaceOnUse" x="0" y="0" width="20" height="20">
<path d="M9.99984 18.3333C11.0944 18.3347 12.1784 18.1198 13.1897 17.701C14.2009 17.2821 15.1194 16.6675 15.8923 15.8925C16.6673 15.1195 17.2819 14.2011 17.7008 13.1898C18.1197 12.1786 18.3346 11.0946 18.3332 10C18.3346 8.90544 18.1197 7.82141 17.7008 6.81018C17.2819 5.79894 16.6673 4.88046 15.8923 4.1075C15.1194 3.33251 14.2009 2.71791 13.1897 2.29903C12.1784 1.88015 11.0944 1.66525 9.99984 1.66666C8.90529 1.66527 7.82125 1.88019 6.81002 2.29906C5.79879 2.71794 4.88031 3.33253 4.10734 4.1075C3.33237 4.88046 2.71779 5.79894 2.29891 6.81018C1.88003 7.82141 1.66512 8.90544 1.66651 10C1.66509 11.0946 1.88 12.1786 2.29888 13.1898C2.71776 14.2011 3.33236 15.1195 4.10734 15.8925C4.88031 16.6675 5.79879 17.2821 6.81002 17.7009C7.82125 18.1198 8.90529 18.3347 9.99984 18.3333Z" fill="#555555" stroke="white" stroke-width="1.66667" stroke-linejoin="round"/>
<path d="M6.6665 10L9.1665 12.5L14.1665 7.5" stroke="white" stroke-width="1.66667" stroke-linecap="round" stroke-linejoin="round"/>
</mask>
<g mask="url(#mask0_139_2326)">
<path d="M0 0H20V20H0V0Z" fill="#088712"/>
</g>
</g>
<defs>
<clipPath id="clip0_139_2326">
<rect width="20" height="20" fill="white"/>
</clipPath>
</defs>
</svg>
