<svg width="21" height="20" viewBox="0 0 21 20" fill="none" xmlns="http://www.w3.org/2000/svg">
<mask id="mask0_139_2146" style="mask-type:luminance" maskUnits="userSpaceOnUse" x="1" y="0" width="19" height="20">
<path d="M10.4998 18.3333C11.5944 18.3348 12.6784 18.1198 13.6897 17.701C14.7009 17.2821 15.6194 16.6675 16.3923 15.8925C17.1673 15.1196 17.7819 14.2011 18.2008 13.1898C18.6197 12.1786 18.8346 11.0946 18.8332 10C18.8346 8.90545 18.6197 7.82141 18.2008 6.81018C17.7819 5.79895 17.1673 4.88046 16.3923 4.1075C15.6194 3.33251 14.7009 2.71792 13.6897 2.29904C12.6784 1.88016 11.5944 1.66525 10.4998 1.66667C9.40529 1.66527 8.32125 1.88019 7.31002 2.29907C6.29879 2.71795 5.38031 3.33253 4.60734 4.1075C3.83237 4.88046 3.21779 5.79895 2.79891 6.81018C2.38003 7.82141 2.16512 8.90545 2.16651 10C2.16509 11.0946 2.38 12.1786 2.79888 13.1898C3.21776 14.2011 3.83236 15.1196 4.60734 15.8925C5.38031 16.6675 6.29879 17.2821 7.31002 17.7009C8.32125 18.1198 9.40529 18.3347 10.4998 18.3333Z" fill="#555555" stroke="white" stroke-width="1.66667" stroke-linejoin="round"/>
<path fill-rule="evenodd" clip-rule="evenodd" d="M10.4997 15.4167C10.7759 15.4167 11.0409 15.3069 11.2362 15.1116C11.4316 14.9162 11.5413 14.6513 11.5413 14.375C11.5413 14.0987 11.4316 13.8338 11.2362 13.6384C11.0409 13.4431 10.7759 13.3333 10.4997 13.3333C10.2234 13.3333 9.95846 13.4431 9.7631 13.6384C9.56775 13.8338 9.45801 14.0987 9.45801 14.375C9.45801 14.6513 9.56775 14.9162 9.7631 15.1116C9.95846 15.3069 10.2234 15.4167 10.4997 15.4167Z" fill="white"/>
<path d="M10.5 5V11.6667" stroke="white" stroke-width="1.66667" stroke-linecap="round" stroke-linejoin="round"/>
</mask>
<g mask="url(#mask0_139_2146)">
<path d="M0.5 0H20.5V20H0.5V0Z" fill="#807300"/>
</g>
</svg>
