<svg width="20" height="20" viewBox="0 0 20 20" fill="none" xmlns="http://www.w3.org/2000/svg">
<path opacity="0.5" d="M10.6933 18.1675C13.2983 17.6458 16.6667 15.7717 16.6667 10.9258C16.6667 6.51666 13.4392 3.58 11.1183 2.23083C10.6025 1.93083 10 2.325 10 2.92083V4.44416C10 5.64583 9.495 7.83916 8.09167 8.75166C7.375 9.2175 6.6 8.52 6.51333 7.67L6.44167 6.97166C6.35833 6.16 5.53167 5.6675 4.88333 6.1625C3.7175 7.05 2.5 8.60833 2.5 10.925C2.5 16.8508 6.9075 18.3333 9.11083 18.3333C9.23917 18.3333 9.37417 18.3283 9.51417 18.3208C9.88583 18.2742 9.51417 18.4033 10.6933 18.1667" fill="#FF0000" fill-opacity="0.5"/>
<path d="M6.6665 15.37C6.6665 17.5533 8.42567 18.2283 9.514 18.3217C9.88567 18.275 9.514 18.4042 10.6932 18.1675C11.559 17.8617 12.4998 17.0767 12.4998 15.37C12.4998 14.2892 11.8173 13.6217 11.2832 13.3092C11.1198 13.2133 10.9298 13.3342 10.9157 13.5225C10.869 14.1208 10.294 14.5975 9.90317 14.1425C9.55734 13.7408 9.4115 13.1533 9.4115 12.7775V12.2858C9.4115 11.9908 9.114 11.7942 8.859 11.9458C7.91234 12.5067 6.6665 13.6617 6.6665 15.37Z" fill="#FF0000" fill-opacity="0.5"/>
</svg>
